<svg xmlns="http://www.w3.org/2000/svg" viewBox="0 0 705.56 246.21"><defs><style>.cls-1{fill:#430d4b;}.cls-2{fill:#7b337d;}.cls-3{fill:#1a1a1a;}.cls-4{fill:#333;}</style></defs><g id="Layer_2" data-name="Layer 2"><g id="Layer_1-2" data-name="Layer 1"><polygon class="cls-1" points="0 246.21 0 246.21 0 37.78 0 37.78 30.37 137.81 0 246.21"/><polygon class="cls-2" points="156.76 212.23 156.76 212.23 0 37.78 0 37.78 30.37 137.81 156.76 212.23"/><polygon class="cls-2" points="159.47 0 159.47 0 159.47 208.43 159.47 208.43 129.1 108.41 159.47 0"/><polygon class="cls-1" points="2.71 33.98 2.71 33.98 159.47 208.43 159.47 208.43 129.1 108.41 2.71 33.98"/><path class="cls-3" d="M324.72,172.75,231.15,88.23l7.21,4,.5,75.46H214.21V39.43h1l91.56,84.18-5.37-2.35-.5-77h24.48V172.75Z"/><path class="cls-3" d="M349.71,106.17A60.94,60.94,0,0,1,354.57,82a65,65,0,0,1,13.5-20.21,63.94,63.94,0,0,1,20-13.83,61.7,61.7,0,0,1,48.8,0,66,66,0,0,1,20.21,13.83A64.87,64.87,0,0,1,470.87,82a60,60,0,0,1,4.95,24.15,60.79,60.79,0,0,1-4.95,24.48,62.68,62.68,0,0,1-13.75,20,65,65,0,0,1-20.21,13.5,63.56,63.56,0,0,1-48.8,0,63.13,63.13,0,0,1-33.54-33.54A61.76,61.76,0,0,1,349.71,106.17Zm25.15,0a39.81,39.81,0,0,0,2.94,15.34A39.15,39.15,0,0,0,386,134.09a37.38,37.38,0,0,0,27.42,11.49,35.76,35.76,0,0,0,14.67-3,35.4,35.4,0,0,0,11.82-8.47,40.32,40.32,0,0,0,7.88-12.58,41.5,41.5,0,0,0-8.13-43.6,37.63,37.63,0,0,0-41.84-8.47,37.36,37.36,0,0,0-12.08,8.47,39,39,0,0,0-8,12.66A41.88,41.88,0,0,0,374.86,106.17Z"/><path class="cls-3" d="M518.75,44.29l36,88.88-14.08-2.85,32.7-86h28.84L545.92,173.42,489.57,44.29Z"/><path class="cls-3" d="M592.87,167.71,648.55,39.43h1.34l55.67,128.28H677.39L641.84,77.49l17.61-12.07-42.6,102.29Zm38.07-44.6H668l8.55,20.46H623.39Z"/><path class="cls-4" d="M222.48,189.29a9.08,9.08,0,0,1,4,.8,5.73,5.73,0,0,1,2.5,2.23,6.63,6.63,0,0,1,.86,3.42,8.1,8.1,0,0,1-.36,2.36,6.25,6.25,0,0,1-1.11,2.14,5.47,5.47,0,0,1-2.06,1.55,7.62,7.62,0,0,1-3.16.58h-2.7v6.06h-3.77V189.29Zm.65,9.42a3.06,3.06,0,0,0,1.43-.3,2.39,2.39,0,0,0,.89-.76,3.39,3.39,0,0,0,.62-1.8,4.43,4.43,0,0,0-.09-.77,3.42,3.42,0,0,0-.38-1,2.32,2.32,0,0,0-.87-.83,3.22,3.22,0,0,0-1.58-.34h-2.7v5.78Z"/><path class="cls-4" d="M279.78,189.29a10.47,10.47,0,0,1,3.2.46,6.43,6.43,0,0,1,2.35,1.3,5.56,5.56,0,0,1,1.45,2,7,7,0,0,1,.49,2.66,8.25,8.25,0,0,1-.35,2.34,6.13,6.13,0,0,1-1.15,2.13,5.48,5.48,0,0,1-2.09,1.55,7.85,7.85,0,0,1-3.22.59h-2.71v6.08H274V189.29Zm.65,9.42a3.19,3.19,0,0,0,1.43-.29,2.44,2.44,0,0,0,.9-.73,3,3,0,0,0,.47-.92,3.35,3.35,0,0,0,.14-.9,4.42,4.42,0,0,0-.09-.79,3.15,3.15,0,0,0-.38-1,2.32,2.32,0,0,0-.87-.83,3.18,3.18,0,0,0-1.57-.34h-2.71v5.78Zm3.54,2.34,4.73,7.38h-4.39l-4.84-7.28Z"/><path class="cls-4" d="M330.77,198.89a9.51,9.51,0,0,1,.75-3.75,10.16,10.16,0,0,1,2.09-3.13,10,10,0,0,1,3.11-2.14,9.57,9.57,0,0,1,7.57,0,10.2,10.2,0,0,1,5.26,5.27,9.61,9.61,0,0,1,0,7.54,9.68,9.68,0,0,1-2.13,3.11,10,10,0,0,1-3.13,2.09,9.81,9.81,0,0,1-7.57,0,9.84,9.84,0,0,1-3.11-2.09,9.73,9.73,0,0,1-2.09-3.11A9.57,9.57,0,0,1,330.77,198.89Zm3.9,0a6.26,6.26,0,0,0,.45,2.38,6.34,6.34,0,0,0,1.28,1.95,5.78,5.78,0,0,0,1.89,1.31,5.92,5.92,0,0,0,2.36.47,5.56,5.56,0,0,0,2.27-.47,5.68,5.68,0,0,0,1.84-1.31,6.55,6.55,0,0,0,1.22-1.95,6.45,6.45,0,0,0,.44-2.38,6.25,6.25,0,0,0-.46-2.42,6.41,6.41,0,0,0-1.24-2,5.74,5.74,0,0,0-8.36,0,5.91,5.91,0,0,0-1.25,2A6.43,6.43,0,0,0,334.67,198.89Z"/><path class="cls-4" d="M392.91,189.29H405.8v3.64h-4.65v15.5h-3.77v-15.5h-4.47Z"/><path class="cls-4" d="M448.39,198.89a9.35,9.35,0,0,1,.76-3.75,10.16,10.16,0,0,1,2.09-3.13,9.87,9.87,0,0,1,3.11-2.14,9.55,9.55,0,0,1,7.56,0A10.19,10.19,0,0,1,465,192a10.31,10.31,0,0,1,2.14,3.13,9.73,9.73,0,0,1,0,7.54,9.87,9.87,0,0,1-2.14,3.11,10,10,0,0,1-3.13,2.09,9.78,9.78,0,0,1-7.56,0,9.73,9.73,0,0,1-5.2-5.2A9.4,9.4,0,0,1,448.39,198.89Zm3.9,0a6.19,6.19,0,0,0,1.73,4.33,5.93,5.93,0,0,0,1.9,1.31,5.87,5.87,0,0,0,2.35.47,5.6,5.6,0,0,0,2.28-.47,5.54,5.54,0,0,0,1.83-1.31,6.35,6.35,0,0,0,1.22-1.95,6.26,6.26,0,0,0,.44-2.38,6.27,6.27,0,0,0-1.7-4.38,5.55,5.55,0,0,0-4.17-1.78,5.75,5.75,0,0,0-2.32.46,5.83,5.83,0,0,0-1.87,1.32,6.08,6.08,0,0,0-1.25,2A6.63,6.63,0,0,0,452.29,198.89Z"/><path class="cls-4" d="M526.83,206.84a6.72,6.72,0,0,1-1.15.71,11.56,11.56,0,0,1-2.07.78,10,10,0,0,1-2.71.31,10.93,10.93,0,0,1-4-.82,8.79,8.79,0,0,1-3-2.09,9.09,9.09,0,0,1-1.89-3,10.29,10.29,0,0,1-.65-3.66,11.71,11.71,0,0,1,.66-4,9.3,9.3,0,0,1,1.9-3.14,8.54,8.54,0,0,1,3-2.06,9.75,9.75,0,0,1,3.8-.72,10.22,10.22,0,0,1,3.41.52,11.92,11.92,0,0,1,2.41,1.11L525,194.29a10.23,10.23,0,0,0-1.73-1,5.45,5.45,0,0,0-2.48-.53,5,5,0,0,0-2.09.45,5.31,5.31,0,0,0-1.77,1.29,6.19,6.19,0,0,0-1.21,1.93,6.34,6.34,0,0,0-.44,2.41,7.48,7.48,0,0,0,.4,2.52,5.53,5.53,0,0,0,1.16,2,5.23,5.23,0,0,0,1.8,1.26A6.23,6.23,0,0,0,521,205a6.33,6.33,0,0,0,2.63-.5,5.59,5.59,0,0,0,1.66-1Z"/><path class="cls-4" d="M570.2,198.89a9.51,9.51,0,0,1,.75-3.75,10.19,10.19,0,0,1,2.1-3.13,9.94,9.94,0,0,1,3.1-2.14,9.33,9.33,0,0,1,3.8-.78,9.22,9.22,0,0,1,3.77.78,10.19,10.19,0,0,1,3.13,2.14,10.31,10.31,0,0,1,2.14,3.13,9.73,9.73,0,0,1,0,7.54,9.87,9.87,0,0,1-2.14,3.11,10,10,0,0,1-3.13,2.09,9.37,9.37,0,0,1-3.77.76,9.48,9.48,0,0,1-3.8-.76,9.82,9.82,0,0,1-5.2-5.2A9.57,9.57,0,0,1,570.2,198.89Zm3.9,0a6.19,6.19,0,0,0,1.73,4.33,5.93,5.93,0,0,0,1.9,1.31,5.87,5.87,0,0,0,2.35.47,5.6,5.6,0,0,0,2.28-.47,5.54,5.54,0,0,0,1.83-1.31,6.35,6.35,0,0,0,1.22-1.95,6.26,6.26,0,0,0,.44-2.38,6.27,6.27,0,0,0-1.7-4.38,5.55,5.55,0,0,0-4.17-1.78,5.75,5.75,0,0,0-2.32.46,5.83,5.83,0,0,0-1.87,1.32,6.08,6.08,0,0,0-1.25,2A6.63,6.63,0,0,0,574.1,198.89Z"/><path class="cls-4" d="M634.29,189.29h3.77v15.5h9v3.64H634.29Z"/><path class="cls-4" d="M701.94,193.92a14.5,14.5,0,0,0-2.22-1,6.5,6.5,0,0,0-2.12-.39,3.27,3.27,0,0,0-1.92.5,1.69,1.69,0,0,0-.71,1.48,1.67,1.67,0,0,0,.54,1.21,5.14,5.14,0,0,0,1.38,1,16.16,16.16,0,0,0,1.75.75,16.05,16.05,0,0,1,1.65.74,6,6,0,0,1,1.47,1.07,4.68,4.68,0,0,1,1,1.58,6.17,6.17,0,0,1,.39,2.33,5.2,5.2,0,0,1-.75,2.71,5.54,5.54,0,0,1-2.21,2,7.65,7.65,0,0,1-3.59.77,12.1,12.1,0,0,1-2.22-.22,11.93,11.93,0,0,1-2.23-.68,10.82,10.82,0,0,1-2.1-1.16l1.66-2.93a8.89,8.89,0,0,0,1.47.87,9.06,9.06,0,0,0,1.6.58,5.92,5.92,0,0,0,1.48.21,4.69,4.69,0,0,0,1.37-.2,2.55,2.55,0,0,0,1.14-.66,1.79,1.79,0,0,0,.45-1.3,1.62,1.62,0,0,0-.37-1,3.86,3.86,0,0,0-1-.86,8.13,8.13,0,0,0-1.39-.67c-.59-.23-1.19-.49-1.82-.78a9.81,9.81,0,0,1-1.75-1.08,4.9,4.9,0,0,1-1.33-1.59,4.82,4.82,0,0,1-.51-2.32,5.41,5.41,0,0,1,.75-2.89,5.3,5.3,0,0,1,2.09-1.94,7.33,7.33,0,0,1,3.12-.79,10.71,10.71,0,0,1,3.76.55,12.45,12.45,0,0,1,2.58,1.3Z"/></g></g></svg>